<?xml version="1.0"?>
<svg xmlns="http://www.w3.org/2000/svg" height="512px" viewBox="0 0 512 512" width="512px"><path d="m494.933594 0h-85.332032c-9.421874.0078125-17.058593 7.644531-17.066406 17.066406v477.867188h-17.070312v-315.734375c-.007813-9.421875-7.644532-17.054688-17.066406-17.066407h-68.265626c-9.421874.011719-17.058593 7.644532-17.066406 17.066407v315.734375h-34.132812v-477.867188c-.007813-9.421875-7.644532-17.0585935-17.066406-17.066406h-68.265626c-9.421874.0078125-17.058593 7.644531-17.066406 17.066406v477.867188h-34.136718v-221.867188c-.007813-9.421875-7.644532-17.058594-17.066407-17.066406h-68.265625c-9.421875.007812-17.0585935 7.644531-17.066406 17.066406v230.398438c0 4.714844 3.820312 8.535156 8.535156 8.535156h486.398438c9.421875-.007812 17.058594-7.644531 17.066406-17.066406v-477.867188c-.007812-9.421875-7.644531-17.0585935-17.066406-17.066406zm-136.535156 179.199219v68.265625h-68.265626v-68.265625zm-136.53125-162.132813v34.132813h-68.265626v-34.132813zm-136.535157 256v119.46875h-68.265625v-119.46875zm-68.265625 221.867188v-85.332032h68.265625v85.332032zm136.535156 0v-426.667969h68.265626v426.667969zm136.53125 0v-230.398438h68.265626v230.398438zm119.46875 0v-25.601563h17.066407c4.710937 0 8.53125-3.820312 8.53125-8.53125 0-4.714843-3.820313-8.535156-8.53125-8.535156h-17.066407v-17.066406h17.066407c4.710937 0 8.53125-3.820313 8.53125-8.53125 0-4.714844-3.820313-8.535157-8.53125-8.535157h-17.066407v-17.066406h51.199219c4.710938 0 8.53125-3.820312 8.53125-8.53125 0-4.714844-3.820312-8.535156-8.53125-8.535156h-51.199219v-17.066406h17.066407c4.710937 0 8.53125-3.820313 8.53125-8.535156 0-4.710938-3.820313-8.53125-8.53125-8.53125h-17.066407v-17.066407h17.066407c4.710937 0 8.53125-3.820312 8.53125-8.535156 0-4.710937-3.820313-8.53125-8.53125-8.53125h-17.066407v-17.066406h17.066407c4.710937 0 8.53125-3.820313 8.53125-8.535157 0-4.710937-3.820313-8.53125-8.53125-8.53125h-17.066407v-17.066406h51.199219c4.710938 0 8.53125-3.824218 8.53125-8.535156s-3.820312-8.535156-8.53125-8.535156h-51.199219v-17.066406h17.066407c4.710937 0 8.53125-3.820313 8.53125-8.53125 0-4.714844-3.820313-8.535157-8.53125-8.535157h-17.066407v-17.066406h17.066407c4.710937 0 8.53125-3.820313 8.53125-8.53125 0-4.714844-3.820313-8.535156-8.53125-8.535156h-17.066407v-17.066407h17.066407c4.710937 0 8.53125-3.820312 8.53125-8.53125 0-4.714843-3.820313-8.535156-8.53125-8.535156h-17.066407v-17.066406h51.199219c4.710938 0 8.53125-3.820312 8.53125-8.535156 0-4.710938-3.820312-8.53125-8.53125-8.53125h-51.199219v-17.066406h17.066407c4.710937 0 8.53125-3.820313 8.53125-8.535157 0-4.710937-3.820313-8.53125-8.53125-8.53125h-17.066407v-17.066406h17.066407c4.710937 0 8.53125-3.820313 8.53125-8.535156 0-4.710938-3.820313-8.53125-8.53125-8.53125h-17.066407v-25.601563h85.332032l.011718 477.867188zm0 0" fill="#1440eb"/><path d="m324.265625 145.066406c4.714844 0 8.535156-3.820312 8.535156-8.53125v-47.667968l11.03125 11.03125c3.351563 3.234374 8.671875 3.1875 11.964844-.101563 3.289063-3.292969 3.335937-8.613281.101563-11.964844l-25.597657-25.597656c-3.339843-3.320313-8.734375-3.320313-12.074219 0l-25.597656 25.597656c-3.234375 3.351563-3.1875 8.671875.105469 11.964844 3.289063 3.289063 8.613281 3.335937 11.960937.101563l11.039063-11.03125v47.667968c0 4.710938 3.820313 8.53125 8.53125 8.53125zm0 0" fill="#1440eb"/><path d="m51.199219 153.601562c-4.710938 0-8.53125 3.820313-8.53125 8.53125v47.667969l-11.035157-11.035156c-3.347656-3.234375-8.671874-3.1875-11.960937.105469-3.292969 3.292968-3.339844 8.613281-.105469 11.960937l25.601563 25.601563c3.339843 3.316406 8.730469 3.316406 12.070312 0l25.601563-25.601563c3.230468-3.347656 3.1875-8.667969-.105469-11.960937-3.292969-3.292969-8.613281-3.339844-11.960937-.105469l-11.039063 11.035156v-47.667969c0-4.710937-3.820313-8.53125-8.535156-8.53125zm0 0" fill="#1440eb"/></svg>
