<?xml version="1.0"?>
<svg xmlns="http://www.w3.org/2000/svg" height="512px" viewBox="0 0 512 512" width="512px"><path d="m51.199219 42.667969c0 4.710937-3.820313 8.53125-8.53125 8.53125-4.714844 0-8.535157-3.820313-8.535157-8.53125 0-4.714844 3.820313-8.535157 8.535157-8.535157 4.710937 0 8.53125 3.820313 8.53125 8.535157zm0 0" fill="#1440eb"/><path d="m85.332031 42.667969c0 4.710937-3.820312 8.53125-8.53125 8.53125-4.714843 0-8.535156-3.820313-8.535156-8.53125 0-4.714844 3.820313-8.535157 8.535156-8.535157 4.710938 0 8.53125 3.820313 8.53125 8.535157zm0 0" fill="#1440eb"/><path d="m119.464844 42.667969c0 4.710937-3.820313 8.53125-8.53125 8.53125-4.714844 0-8.535156-3.820313-8.535156-8.53125 0-4.714844 3.820312-8.535157 8.535156-8.535157 4.710937 0 8.53125 3.820313 8.53125 8.535157zm0 0" fill="#1440eb"/><path d="m486.398438 0h-460.796876c-14.132812.015625-25.585937 11.46875-25.601562 25.601562v460.796876c.0195312 5.550781 1.855469 10.9375 5.234375 15.34375.160156.203124.308594.402343.488281.597656 4.808594 6.078125 12.125 9.632812 19.878906 9.660156h452.265626c18.847656-.003906 34.128906-15.285156 34.132812-34.132812v-452.265626c-.015625-14.132812-11.46875-25.585937-25.601562-25.601562zm-117.140626 393.390625-7.6875-7.8125c1.335938-1.136719 2.488282-2.464844 3.78125-3.652344 2.03125-1.867187 4.035157-3.753906 5.949219-5.738281 1.707031-1.777344 3.363281-3.601562 4.976563-5.472656 1.875-2.167969 3.648437-4.414063 5.382812-6.699219.945313-1.246094 2.027344-2.367187 2.933594-3.644531l8.773438 8.851562.027343.03125zm-18.953124-20.8125c-1.042969.886719-2.113282 1.746094-3.191407 2.597656-51.632812 40.914063-126.648437 32.296875-167.652343-19.265625-41.007813-51.5625-32.519532-126.59375 18.96875-167.691406 51.492187-41.09375 126.535156-32.738281 167.722656 18.679688l-11.917969 12.511718c-33.679687-44.101562-96.378906-53.304687-141.3125-20.746094-44.9375 32.558594-55.714844 95.007813-24.296875 140.746094.386719.710938.871094 1.363282 1.445312 1.933594 31.316407 43.671875 91.09375 55.660156 136.828126 27.4375 45.734374-28.21875 61.832031-87.023438 36.84375-134.601562l12.277343-12.890626c22.890625 38.695313 21.917969 87.011719-2.515625 124.75-.828125 1.289063-1.660156 2.570313-2.53125 3.816407-1.433594 2.050781-2.925781 4.046875-4.484375 5.992187-.808593 1.019532-1.628906 2.027344-2.46875 3.015625-1.71875 2.019531-3.5 3.980469-5.347656 5.882813-.835937.859375-1.683594 1.707031-2.546875 2.539062-1.878906 1.828125-3.820312 3.59375-5.820312 5.292969zm8.09375-90.976563c.039062 36.304688-22.921876 68.652344-57.207032 80.59375-34.285156 11.941407-72.375.859376-94.898437-27.617187l50.507812-88.382813 34.925781 48.898438c1.476563 2.070312 3.800782 3.375 6.339844 3.550781 2.535156.152344 5.011719-.804687 6.785156-2.628906l46.328126-48.644531c4.761718 10.785156 7.21875 22.441406 7.21875 34.230468zm-58.792969-4.832031-36.667969-51.332031c-1.691406-2.367188-4.46875-3.707031-7.371094-3.5625-2.90625.148438-5.535156 1.761719-6.976562 4.289062l-52.539063 91.941407c-18.972656-39.867188-4.355469-87.625 33.6875-110.039063 38.039063-22.414062 86.898438-12.054687 112.574219 23.863282zm99.820312 110.589844 12.066407 12.066406-12.066407 12.066407-12.066406-12.066407zm6.03125 42.238281 24.136719-24.136718 12.070312 12.070312-24.136718 24.132812zm54.328125-18.078125-.019531-.023437-.023437-.019532-18.074219-18.074218c-3.1875-3.214844-7.53125-5.019532-12.058594-5.007813h-.015625c-1.476562.019531-2.945312.234375-4.367188.632813l-15.402343-15.402344c1.664062-5.851562 0-12.148438-4.339844-16.410156l-11.765625-11.875c23.003906-43.257813 20.894531-95.566406-5.527344-136.828125l72.609375-76.246094v12.800781c0 4.714844 3.820313 8.535156 8.53125 8.535156 4.714844 0 8.535157-3.820312 8.535157-8.535156v-34.132812l-.019532-.097656c-.046875-.796876-.207031-1.582032-.472656-2.335938-.050781-.3125-.117188-.621094-.203125-.925781-.164063-.277344-.34375-.542969-.539063-.796875-.359374-.707032-.816406-1.363282-1.359374-1.941406l-.054688-.082032c-.308594-.226562-.632812-.429687-.972656-.609375-1.015625-.941406-2.34375-1.476562-3.730469-1.503906-.386719-.109375-.78125-.191406-1.183594-.242187h-34.132812c-4.710938 0-8.53125 3.820312-8.53125 8.535156 0 4.710937 3.820312 8.53125 8.53125 8.53125h14.222656l-71.386719 74.957031c-35.691406-43.082031-94.082031-59.984375-147.269531-42.632813-53.1875 17.351563-90.378906 65.4375-93.800781 121.277344h-26.03125c-4.714844 0-8.535156 3.820313-8.535156 8.535156 0 4.710938 3.820312 8.53125 8.535156 8.53125h26.03125c1.722656 28.546876 12.410156 55.820313 30.539062 77.933594l-16.777344 29.363282-69.191406-46.128907c-2.066406-1.378906-4.632812-1.789062-7.027344-1.125-2.390624.667969-4.375 2.34375-5.433593 4.589844l-52.007813 110.519531v-72.75h8.535156c4.710938 0 8.53125-3.824218 8.53125-8.535156s-3.820312-8.535156-8.53125-8.535156h-8.535156v-17.066406h8.535156c4.710938 0 8.53125-3.820313 8.53125-8.53125 0-4.714844-3.820312-8.535157-8.53125-8.535157h-8.535156v-17.066406h8.535156c4.710938 0 8.53125-3.820313 8.53125-8.53125 0-4.714844-3.820312-8.535156-8.53125-8.535156h-8.535156v-17.066407h8.535156c4.710938 0 8.53125-3.820312 8.53125-8.53125 0-4.714843-3.820312-8.535156-8.53125-8.535156h-8.535156v-17.066406h8.535156c4.710938 0 8.53125-3.820312 8.53125-8.535156 0-4.710938-3.820312-8.53125-8.53125-8.53125h-8.535156v-17.066406h8.535156c4.710938 0 8.53125-3.820313 8.53125-8.535157 0-4.710937-3.820312-8.53125-8.53125-8.53125h-8.535156v-17.066406h8.535156c4.710938 0 8.53125-3.820313 8.53125-8.535156 0-4.710938-3.820312-8.53125-8.53125-8.53125h-8.535156v-17.066407h8.535156c4.710938 0 8.53125-3.820312 8.53125-8.535156 0-4.710937-3.820312-8.53125-8.53125-8.53125h-8.535156v-17.070312h8.535156c4.710938 0 8.53125-3.820313 8.53125-8.53125 0-4.714844-3.820312-8.535156-8.53125-8.535156h-8.535156v-17.066407h477.867188v361.335938zm-442.71875-385.917969c.003906-4.710937 3.824219-8.53125 8.535156-8.535156h460.796876c4.710937.003906 8.53125 3.824219 8.535156 8.535156v42.664063h-477.867188zm5.230469 468.664063 58.011719-123.273437 68.558594 45.707031c1.96875 1.3125 4.390624 1.75 6.691406 1.207031 2.304687-.546875 4.277344-2.019531 5.449218-4.074219l18.757813-32.828125c23.105469 21.757813 53.09375 34.742188 84.769531 36.695313v34.566406c0 4.714844 3.820313 8.535156 8.53125 8.535156 4.714844 0 8.535156-3.820312 8.535156-8.535156v-34.566406c23.554688-1.421875 46.332032-8.96875 66.074219-21.898438l9.507813 9.65625c4.261718 4.355469 10.570312 6.027344 16.429687 4.351563l15.410157 15.414062c-1.667969 5.867188.007812 12.175782 4.367187 16.4375l18.097656 18.09375 35.179688 35.179688h-62.667969v-8.535156c0-4.710938-3.820312-8.53125-8.535156-8.53125-4.710938 0-8.53125 3.820312-8.53125 8.53125v8.535156h-17.066406v-8.535156c0-4.710938-3.820313-8.53125-8.535157-8.53125-4.710937 0-8.53125 3.820312-8.53125 8.53125v8.535156h-17.066406v-8.535156c0-4.710938-3.820313-8.53125-8.535156-8.53125-4.710938 0-8.53125 3.820312-8.53125 8.53125v8.535156h-17.066407v-8.535156c0-4.710938-3.820312-8.53125-8.535156-8.53125-4.710937 0-8.53125 3.820312-8.53125 8.53125v8.535156h-17.070312v-8.535156c0-4.710938-3.820313-8.53125-8.53125-8.53125-4.714844 0-8.535156 3.820312-8.535156 8.53125v8.535156h-17.066407v-8.535156c0-4.710938-3.820312-8.53125-8.53125-8.53125-4.714843 0-8.535156 3.820312-8.535156 8.53125v8.535156h-17.066406v-8.535156c0-4.710938-3.820313-8.53125-8.53125-8.53125-4.714844 0-8.535157 3.820312-8.535157 8.53125v8.535156h-17.066406v-8.535156c0-4.710938-3.820312-8.53125-8.53125-8.53125-4.714844 0-8.535156 3.820312-8.535156 8.53125v8.535156h-102.398438c-1.136718 0-2.257812-.226563-3.304687-.667969zm467.636719-4.332031c-6.753906 6.449218-17.382813 6.449218-24.132813 0l-36.207031-36.207032 24.132812-24.128906 36.207032 36.207032c3.203125 3.199218 5 7.539062 5 12.0625 0 4.527343-1.796875 8.867187-5 12.066406zm0 0" fill="#1440eb"/><path d="m76.800781 273.066406h-17.066406c-4.714844 0-8.535156 3.820313-8.535156 8.535156 0 4.710938 3.820312 8.53125 8.535156 8.53125h17.066406c4.710938 0 8.53125-3.820312 8.53125-8.53125 0-4.714843-3.820312-8.535156-8.53125-8.535156zm0 0" fill="#1440eb"/></svg>
